HIERARCHY
ROOT Hips
{
    OFFSET   0.000000   0.000000   0.000000
    CHANNELS 6 Xposition Yposition Zposition Zrotation Xrotation Yrotation
    JOINT Chest
    {
        OFFSET   0.000000   8.007230   0.000000
        CHANNELS 3 Zrotation Xrotation Yrotation
        JOINT Chest2
        {
            OFFSET   0.000000  22.077100   0.000000
            CHANNELS 3 Zrotation Xrotation Yrotation
            JOINT Neck
            {
                OFFSET   0.000000  23.255100   0.000000
                CHANNELS 3 Zrotation Xrotation Yrotation
                JOINT Head
                {
                    OFFSET   0.000000  14.370100   1.956600
                    CHANNELS 3 Zrotation Xrotation Yrotation
                    End Site
                    {
                        OFFSET   0.000000  19.566000   0.000000
                    }
                }
            }
            JOINT LeftCollar
            {
                OFFSET   3.911900  19.017000  -0.467063
                CHANNELS 3 Zrotation Xrotation Yrotation
                JOINT LeftShoulder
                {
                    OFFSET  10.383700   0.000000   0.000000
                    CHANNELS 3 Zrotation Xrotation Yrotation
                    JOINT LeftElbow
                    {
                        OFFSET  26.662100   0.001193   0.000980
                        CHANNELS 3 Zrotation Xrotation Yrotation
                        JOINT LeftWrist
                        {
                            OFFSET  28.869000  -0.000059  -0.000082
                            CHANNELS 3 Zrotation Xrotation Yrotation
                            JOINT LeftFinger0
                            {
                                OFFSET   2.044650  -2.323450   3.252850
                                CHANNELS 3 Zrotation Xrotation Yrotation
                                JOINT LeftFinger01
                                {
                                    OFFSET   3.088130   0.000000   0.000000
                                    CHANNELS 3 Zrotation Xrotation Yrotation
                                    JOINT LeftFinger02
                                    {
                                        OFFSET   2.639460   0.000000   0.000000
                                        CHANNELS 3 Zrotation Xrotation Yrotation
                                        End Site
                                        {
                                            OFFSET   2.582190   0.000000   0.000000
                                        }
                                    }
                                }
                            }
                            JOINT LeftFinger1
                            {
                                OFFSET   8.364480   0.000000   3.252850
                                CHANNELS 3 Zrotation Xrotation Yrotation
                                JOINT LeftFinger11
                                {
                                    OFFSET   4.646930   0.000000   0.000000
                                    CHANNELS 3 Zrotation Xrotation Yrotation
                                    JOINT LeftFinger12
                                    {
                                        OFFSET   2.323470   0.000000   0.000000
                                        CHANNELS 3 Zrotation Xrotation Yrotation
                                        End Site
                                        {
                                            OFFSET   2.273050   0.000000   0.000000
                                        }
                                    }
                                }
                            }
                            JOINT LeftFinger2
                            {
                                OFFSET   8.364490   0.000016   1.078090
                                CHANNELS 3 Zrotation Xrotation Yrotation
                                JOINT LeftFinger21
                                {
                                    OFFSET   5.111610   0.000000   0.000000
                                    CHANNELS 3 Zrotation Xrotation Yrotation
                                    JOINT LeftFinger22
                                    {
                                        OFFSET   2.788150   0.000016   0.000000
                                        CHANNELS 3 Zrotation Xrotation Yrotation
                                        End Site
                                        {
                                            OFFSET   2.727660   0.000000   0.000000
                                        }
                                    }
                                }
                            }
                            JOINT LeftFinger3
                            {
                                OFFSET   7.899780   0.000015  -1.078090
                                CHANNELS 3 Zrotation Xrotation Yrotation
                                JOINT LeftFinger31
                                {
                                    OFFSET   4.646930   0.000000   0.000000
                                    CHANNELS 3 Zrotation Xrotation Yrotation
                                    JOINT LeftFinger32
                                    {
                                        OFFSET   2.323470   0.000000   0.000000
                                        CHANNELS 3 Zrotation Xrotation Yrotation
                                        End Site
                                        {
                                            OFFSET   2.273050   0.000000   0.000000
                                        }
                                    }
                                }
                            }
                            JOINT LeftFinger4
                            {
                                OFFSET   7.435090   0.000000  -3.252850
                                CHANNELS 3 Zrotation Xrotation Yrotation
                                JOINT LeftFinger41
                                {
                                    OFFSET   3.717550   0.000000   0.000000
                                    CHANNELS 3 Zrotation Xrotation Yrotation
                                    JOINT LeftFinger42
                                    {
                                        OFFSET   1.858770   0.000000   0.000000
                                        CHANNELS 3 Zrotation Xrotation Yrotation
                                        End Site
                                        {
                                            OFFSET   1.818440   0.000000   0.000000
                                        }
                                    }
                                }
                            }
                        }
                    }
                }
            }
            JOINT RightCollar
            {
                OFFSET  -3.911910  19.017000  -0.467062
                CHANNELS 3 Zrotation Xrotation Yrotation
                JOINT RightShoulder
                {
                    OFFSET -10.383700   0.000014   0.000000
                    CHANNELS 3 Zrotation Xrotation Yrotation
                    JOINT RightElbow
                    {
                        OFFSET -26.662100   0.001225   0.001091
                        CHANNELS 3 Zrotation Xrotation Yrotation
                        JOINT RightWrist
                        {
                            OFFSET -28.869000  -0.000020  -0.000085
                            CHANNELS 3 Zrotation Xrotation Yrotation
                            JOINT RightFinger0
                            {
                                OFFSET  -2.044650  -2.323490   3.252850
                                CHANNELS 3 Zrotation Xrotation Yrotation
                                JOINT RightFinger01
                                {
                                    OFFSET  -3.088130   0.000000   0.000000
                                    CHANNELS 3 Zrotation Xrotation Yrotation
                                    JOINT RightFinger02
                                    {
                                        OFFSET  -2.639460   0.000000   0.000000
                                        CHANNELS 3 Zrotation Xrotation Yrotation
                                        End Site
                                        {
                                            OFFSET  -2.582190   0.000000   0.000000
                                        }
                                    }
                                }
                            }
                            JOINT RightFinger1
                            {
                                OFFSET  -8.364480   0.000000   3.252850
                                CHANNELS 3 Zrotation Xrotation Yrotation
                                JOINT RightFinger11
                                {
                                    OFFSET  -4.646930   0.000000   0.000000
                                    CHANNELS 3 Zrotation Xrotation Yrotation
                                    JOINT RightFinger12
                                    {
                                        OFFSET  -2.323470   0.000000   0.000000
                                        CHANNELS 3 Zrotation Xrotation Yrotation
                                        End Site
                                        {
                                            OFFSET  -2.273050   0.000000   0.000000
                                        }
                                    }
                                }
                            }
                            JOINT RightFinger2
                            {
                                OFFSET  -8.364480   0.000000   1.078090
                                CHANNELS 3 Zrotation Xrotation Yrotation
                                JOINT RightFinger21
                                {
                                    OFFSET  -5.111620   0.000000   0.000000
                                    CHANNELS 3 Zrotation Xrotation Yrotation
                                    JOINT RightFinger22
                                    {
                                        OFFSET  -2.788160   0.000000   0.000000
                                        CHANNELS 3 Zrotation Xrotation Yrotation
                                        End Site
                                        {
                                            OFFSET  -2.727660   0.000000   0.000000
                                        }
                                    }
                                }
                            }
                            JOINT RightFinger3
                            {
                                OFFSET  -7.899780   0.000000  -1.078090
                                CHANNELS 3 Zrotation Xrotation Yrotation
                                JOINT RightFinger31
                                {
                                    OFFSET  -4.646930   0.000000   0.000000
                                    CHANNELS 3 Zrotation Xrotation Yrotation
                                    JOINT RightFinger32
                                    {
                                        OFFSET  -2.323470   0.000000   0.000000
                                        CHANNELS 3 Zrotation Xrotation Yrotation
                                        End Site
                                        {
                                            OFFSET  -2.273050   0.000000   0.000000
                                        }
                                    }
                                }
                            }
                            JOINT RightFinger4
                            {
                                OFFSET  -7.435090   0.000000  -3.252850
                                CHANNELS 3 Zrotation Xrotation Yrotation
                                JOINT RightFinger41
                                {
                                    OFFSET  -3.717550   0.000000   0.000000
                                    CHANNELS 3 Zrotation Xrotation Yrotation
                                    JOINT RightFinger42
                                    {
                                        OFFSET  -1.858760   0.000000   0.000000
                                        CHANNELS 3 Zrotation Xrotation Yrotation
                                        End Site
                                        {
                                            OFFSET  -1.818440   0.000000   0.000000
                                        }
                                    }
                                }
                            }
                        }
                    }
                }
            }
        }
    }
    JOINT LeftHip
    {
        OFFSET   9.783030   0.000000   0.000000
        CHANNELS 3 Zrotation Xrotation Yrotation
        JOINT LeftKnee
        {
            OFFSET   0.000063 -41.789100   0.000608
            CHANNELS 3 Zrotation Xrotation Yrotation
            JOINT LeftAnkle
            {
                OFFSET   0.000048 -41.133200  -0.000184
                CHANNELS 3 Zrotation Xrotation Yrotation
                JOINT LeftToe
                {
                    OFFSET   0.000000  -6.358960  14.674500
                    CHANNELS 3 Zrotation Xrotation Yrotation
                    End Site
                    {
                        OFFSET   0.000000   0.000000   3.913200
                    }
                }
            }
        }
    }
    JOINT RightHip
    {
        OFFSET  -9.783030   0.000000   0.000000
        CHANNELS 3 Zrotation Xrotation Yrotation
        JOINT RightKnee
        {
            OFFSET   0.000071 -41.789100   0.001239
            CHANNELS 3 Zrotation Xrotation Yrotation
            JOINT RightAnkle
            {
                OFFSET   0.000037 -41.133200  -0.000166
                CHANNELS 3 Zrotation Xrotation Yrotation
                JOINT RightToe
                {
                    OFFSET   0.000000  -6.358960  14.674500
                    CHANNELS 3 Zrotation Xrotation Yrotation
                    End Site
                    {
                        OFFSET   0.000000   0.000000   3.913200
                    }
                }
            }
        }
    }
}
MOTION
Frames: 4
Frame Time:   0.016667
  1.808830  89.538900  -2.270650  -5.169530 -10.713400  -8.596920   0.748498   7.347200   0.763174   1.415020  14.703300   1.446650   0.999676  -2.142700   0.042505   1.648430  -4.341190   9.621160  -7.044170  -1.573720   1.159270 -69.903100  23.989000  -6.983210  -0.871106  -6.467220 -20.398400  18.786200 -13.612200  11.700100  40.137300  36.828600 -62.165800 -34.931000   0.006150   0.004320 -12.465500   0.004402   0.004374 -31.049400   6.293090 -10.318700 -25.869400   0.006312   0.002297 -18.108600   0.006445   0.003727 -28.440000  -0.579196   1.069410 -35.565900   0.011959   0.000264 -23.686900   0.007687   0.000315 -28.783200  -0.585686   1.065860 -42.105600   0.001651   0.005013 -28.042400   0.000667   0.003311 -40.884800  -1.337440   1.544340 -61.354200  -0.000171  -0.002192 -40.861900  -0.001804   0.009743  11.692900   1.770330   9.723020  42.841500  16.505500  38.020800 -28.836400 -32.410800  92.358900 -66.124000  51.502600  30.249800 -37.475100  53.609600  80.985600  61.628900  -0.004291  -0.000648  34.384800  -0.002666  -0.001516  -4.410870  -2.198560  26.438600   0.000000   0.005308  -0.000447  -0.000301   0.005473  -0.000553   1.538600   0.023086   0.815750   1.538720   0.001398  -0.000194   1.024780   0.003461  -0.000816  80.040900  -4.933940  -0.864510  80.078200  -0.005542  -0.003441  60.051200  -0.005559   0.001259  76.657700  -9.735930  -2.296580 110.000000  -0.001389   0.000625  76.776400   0.000105  -0.002536   2.964320  12.585300   5.647040   0.753978   0.197372  10.276100  -1.323530  -2.245070   5.433800  -0.000000   0.000000   0.000000   4.559510   8.126800  -4.447290  -3.008300   6.175190  -7.469400   1.202280  -3.625010   5.100280  -0.000000   0.000000   0.000000
  1.782070  89.541800  -2.259420  -5.177710 -10.712200  -8.636910   0.743319   7.337670   0.759903   1.404640  14.684100   1.441390   1.012730  -2.148640   0.042484   1.670110  -4.352480   9.586460  -7.069330  -1.591160   1.146610 -69.880300  24.071800  -7.008320  -0.883773  -6.611760 -20.275000  18.723100 -13.651000  11.686000  40.156800  36.866100 -62.265000 -34.916600   0.006392   0.004494 -12.458300   0.004548   0.004307 -31.053000   6.326980 -10.366300 -25.871800   0.006450   0.002287 -18.110300   0.006494   0.003790 -28.441100  -0.553586   1.022100 -35.565100   0.012273   0.000318 -23.686400   0.007907   0.000335 -28.784300  -0.559780   1.018710 -42.105500   0.001525   0.005209 -28.042300   0.000544   0.003405 -40.885100  -1.337540   1.544430 -61.354700  -0.000165  -0.002209 -40.862300  -0.001728   0.009967  11.688900   1.746930   9.748510  42.773700  16.623900  38.269800 -28.864700 -32.456000  92.274000 -66.027700  51.394900  30.148000 -37.754500  53.800300  81.326400  61.509900  -0.004287  -0.000638  34.305500  -0.002653  -0.001610  -4.528610  -2.261210  26.477800   0.000000   0.005336  -0.000484  -0.000272   0.005450  -0.000524   1.499760   0.024407   0.909375   1.499960   0.001378  -0.000187   0.998967   0.003598  -0.000812  80.034000  -4.933840  -0.864676  80.071400  -0.005622  -0.003575  60.050000  -0.005643   0.001268  76.690100  -9.735900  -2.291110 110.000000  -0.001389   0.000680  76.808300   0.000122  -0.002652   2.990770  12.597800   5.634120   0.747801   0.222433  10.302500  -1.337900  -2.273790   5.450070  -0.000000   0.000000   0.000000   4.574290   8.151390  -4.425810  -2.995380   6.151580  -7.467530   1.182660  -3.625220   5.114000  -0.000000   0.000000  -0.000000
  1.755330  89.544600  -2.250750  -5.188740 -10.710200  -8.688470   0.738404   7.330420   0.759425   1.395220  14.669500   1.440560   1.028200  -2.159020   0.042464   1.695600  -4.373570   9.512490  -7.095320  -1.619090   1.128540 -69.863700  24.115900  -7.014500  -0.897864  -6.699410 -20.216700  18.659600 -13.664400  11.651100  40.219200  36.935600 -62.382100 -34.889300   0.006643   0.004677 -12.444700   0.004702   0.004248 -31.039100   6.367500 -10.441900 -25.872100   0.006591   0.002281 -18.110500   0.006541   0.003856 -28.442500  -0.512733   0.946670 -35.559700   0.012587   0.000386 -23.682700   0.008128   0.000359 -28.785700  -0.518475   0.943532 -42.104600   0.001406   0.005411 -28.041700   0.000423   0.003503 -40.885100  -1.337550   1.544440 -61.354800  -0.000158  -0.002224 -40.862300  -0.001655   0.010188  11.686200   1.701140   9.769370  42.701500  16.740900  38.478300 -28.925000 -32.525400  92.121300 -65.977800  51.331900  30.082300 -38.005800  53.967400  81.632900  61.402200  -0.004277  -0.000621  34.233800  -0.002640  -0.001702  -4.646260  -2.323820  26.517000   0.000000   0.005363  -0.000520  -0.000251   0.005427  -0.000495   1.460920   0.025766   1.003000   1.461200   0.001360  -0.000179   0.973150   0.003733  -0.000810  80.028800  -4.933740  -0.864747  80.066100  -0.005699  -0.003710  60.049600  -0.005724   0.001284  76.730900  -9.735790  -2.284240 110.000000  -0.001390   0.000734  76.848400   0.000131  -0.002772   3.015440  12.608800   5.621860   0.742861   0.247482  10.340400  -1.352490  -2.302370   5.469040  -0.000000   0.000000   0.000000   4.591770   8.162950  -4.411230  -2.987080   6.136900  -7.456600   1.163590  -3.625710   5.138290   0.000000   0.000000  -0.000000
  1.727500  89.547200  -2.245930  -5.204000 -10.698400  -8.750050   0.733093   7.320030   0.764463   1.384040  14.648800   1.451370   1.046870  -2.172360   0.042450   1.726520  -4.400760   9.418880  -7.117480  -1.642390   1.119610 -69.856900  24.116900  -6.987800  -0.896514  -6.690860 -20.227800  18.638900 -13.622300  11.597400  40.282000  36.973800 -62.412700 -34.855100   0.006901   0.004847 -12.428300   0.004868   0.004199 -31.000300   6.397690 -10.506800 -25.846900   0.006740   0.002288 -18.093100   0.006587   0.003921 -28.443500  -0.477380   0.881516 -35.512200   0.012902   0.000428 -23.651100   0.008349   0.000374 -28.786900  -0.482792   0.878557 -42.057000   0.001293   0.005620 -28.010000   0.000298   0.003601 -40.862400  -1.330700   1.537740 -61.320400  -0.000151  -0.002239 -40.839400  -0.001585   0.010407  11.691600   1.644420   9.787340  42.601100  16.844500  38.649800 -29.006000 -32.589400  91.962100 -65.966800  51.335000  30.045500 -37.771700  53.784500  81.346100  61.463100  -0.004253  -0.000609  34.274300  -0.002635  -0.001791  -4.314240  -2.155940  26.503300   0.000000   0.005377  -0.000536  -0.000269   0.005397  -0.000486   1.597150   0.027031   0.895327   1.597450   0.001346  -0.000181   1.063900   0.003876  -0.000795  80.074300  -4.933660  -0.860693  80.111400  -0.005759  -0.003834  60.083600  -0.005795   0.001300  76.794700  -9.735650  -2.273430 110.000000  -0.001388   0.000773  76.911200   0.000149  -0.002889   3.035050  12.626800   5.613420   0.745485   0.234996  10.379800  -1.362970  -2.311630   5.494610  -0.000000   0.000000   0.000000   4.618670   8.156440  -4.418750  -2.988370   6.131740  -7.426930   1.144430  -3.626330   5.172410  -0.000000   0.000000  -0.000000
